<svg width="24" height="26" viewBox="0 0 24 26" fill="none" xmlns="http://www.w3.org/2000/svg">
<path d="M20.0817 3.97844C19.035 2.92119 17.79 2.0808 16.4181 1.50537C15.0461 0.929934 13.5741 0.630769 12.0864 0.625H12C8.98316 0.625 6.08989 1.82343 3.95666 3.95666C1.82343 6.08989 0.625 8.98316 0.625 12V18.125C0.625 18.8212 0.901562 19.4889 1.39384 19.9812C1.88613 20.4734 2.55381 20.75 3.25 20.75H5C5.69619 20.75 6.36387 20.4734 6.85616 19.9812C7.34844 19.4889 7.625 18.8212 7.625 18.125V13.75C7.625 13.0538 7.34844 12.3861 6.85616 11.8938C6.36387 11.4016 5.69619 11.125 5 11.125H2.41438C2.58312 9.30055 3.26841 7.562 4.38993 6.11311C5.51145 4.66423 7.02273 3.56503 8.74664 2.94437C10.4705 2.3237 12.3357 2.20728 14.1234 2.60874C15.9111 3.01021 17.5473 3.91292 18.8403 5.21109C20.4207 6.79955 21.3927 8.89272 21.5867 11.125H19C18.3038 11.125 17.6361 11.4016 17.1438 11.8938C16.6516 12.3861 16.375 13.0538 16.375 13.75V18.125C16.375 18.8212 16.6516 19.4889 17.1438 19.9812C17.6361 20.4734 18.3038 20.75 19 20.75H21.625C21.625 21.4462 21.3484 22.1139 20.8562 22.6062C20.3639 23.0984 19.6962 23.375 19 23.375H12.875C12.6429 23.375 12.4204 23.4672 12.2563 23.6313C12.0922 23.7954 12 24.0179 12 24.25C12 24.4821 12.0922 24.7046 12.2563 24.8687C12.4204 25.0328 12.6429 25.125 12.875 25.125H19C20.1603 25.125 21.2731 24.6641 22.0936 23.8436C22.9141 23.0231 23.375 21.9103 23.375 20.75V12C23.3807 10.512 23.0927 9.03757 22.5276 7.66108C21.9625 6.2846 21.1313 5.03315 20.0817 3.97844ZM5 12.875C5.23206 12.875 5.45462 12.9672 5.61872 13.1313C5.78281 13.2954 5.875 13.5179 5.875 13.75V18.125C5.875 18.3571 5.78281 18.5796 5.61872 18.7437C5.45462 18.9078 5.23206 19 5 19H3.25C3.01794 19 2.79538 18.9078 2.63128 18.7437C2.46719 18.5796 2.375 18.3571 2.375 18.125V12.875H5ZM19 19C18.7679 19 18.5454 18.9078 18.3813 18.7437C18.2172 18.5796 18.125 18.3571 18.125 18.125V13.75C18.125 13.5179 18.2172 13.2954 18.3813 13.1313C18.5454 12.9672 18.7679 12.875 19 12.875H21.625V19H19Z" fill="#2F627E"/>
</svg>
