<svg width="22" height="22" viewBox="0 0 22 22" fill="none" xmlns="http://www.w3.org/2000/svg">
<path d="M21.6875 1.5V16.9375C21.6875 17.2524 21.5624 17.5545 21.3397 17.7772C21.117 17.9999 20.8149 18.125 20.5 18.125C20.185 18.125 19.883 17.9999 19.6603 17.7772C19.4376 17.5545 19.3125 17.2524 19.3125 16.9375V4.36633L2.34015 21.3402C2.11732 21.563 1.81511 21.6882 1.49999 21.6882C1.18487 21.6882 0.882656 21.563 0.659833 21.3402C0.437009 21.1173 0.311829 20.8151 0.311829 20.5C0.311829 20.1849 0.437009 19.8827 0.659833 19.6598L17.6337 2.6875H5.06249C4.74754 2.6875 4.4455 2.56239 4.2228 2.33969C4.0001 2.11699 3.87499 1.81494 3.87499 1.5C3.87499 1.18506 4.0001 0.88301 4.2228 0.660311C4.4455 0.437611 4.74754 0.3125 5.06249 0.3125H20.5C20.8149 0.3125 21.117 0.437611 21.3397 0.660311C21.5624 0.88301 21.6875 1.18506 21.6875 1.5Z" fill="#EFC743"/>
</svg>
