<svg width="7" height="14" viewBox="0 0 7 14" fill="none" xmlns="http://www.w3.org/2000/svg">
<path d="M6.77297 7.39804L1.14797 13.023C1.09571 13.0753 1.03366 13.1168 0.965379 13.145C0.897096 13.1733 0.82391 13.1879 0.75 13.1879C0.67609 13.1879 0.602904 13.1733 0.534621 13.145C0.466337 13.1168 0.404293 13.0753 0.352031 13.023C0.299769 12.9708 0.258312 12.9087 0.230029 12.8404C0.201745 12.7722 0.187187 12.699 0.187187 12.6251C0.187187 12.5512 0.201745 12.478 0.230029 12.4097C0.258312 12.3414 0.299769 12.2794 0.352031 12.2271L5.57977 7.00007L0.352031 1.77304C0.246483 1.66749 0.187187 1.52434 0.187187 1.37507C0.187187 1.2258 0.246483 1.08265 0.352031 0.9771C0.457579 0.871552 0.600733 0.812256 0.75 0.812256C0.899267 0.812256 1.04242 0.871552 1.14797 0.9771L6.77297 6.6021C6.82527 6.65434 6.86676 6.71638 6.89506 6.78466C6.92337 6.85295 6.93794 6.92615 6.93794 7.00007C6.93794 7.07399 6.92337 7.14719 6.89506 7.21547C6.86676 7.28376 6.82527 7.3458 6.77297 7.39804Z" fill="white"/>
</svg>
